<svg width="35" height="35" viewBox="0 0 35 35" fill="none" xmlns="http://www.w3.org/2000/svg">
<path fill-rule="evenodd" clip-rule="evenodd" d="M3.34131 17.8355C3.34131 12.159 3.34131 9.32072 4.69398 7.2764C5.29801 6.36351 6.07982 5.5817 6.99271 4.97767C9.03703 3.625 11.8753 3.625 17.5518 3.625C23.2284 3.625 26.0666 3.625 28.111 4.97767C29.0239 5.5817 29.8057 6.36351 30.4097 7.2764C31.7624 9.32072 31.7624 12.159 31.7624 17.8355C31.7624 23.5121 31.7624 26.3503 30.4097 28.3947C29.8057 29.3075 29.0239 30.0893 28.111 30.6934C26.0666 32.0461 23.2284 32.0461 17.5518 32.0461C11.8753 32.0461 9.03703 32.0461 6.99271 30.6934C6.07982 30.0893 5.29801 29.3075 4.69398 28.3947C3.34131 26.3503 3.34131 23.5121 3.34131 17.8355ZM24.9085 17.8359C24.9085 21.899 21.6147 25.1928 17.5516 25.1928C13.4884 25.1928 10.1946 21.899 10.1946 17.8359C10.1946 13.7727 13.4884 10.4789 17.5516 10.4789C21.6147 10.4789 24.9085 13.7727 24.9085 17.8359ZM17.5516 22.7038C20.2401 22.7038 22.4195 20.5244 22.4195 17.8359C22.4195 15.1474 20.2401 12.968 17.5516 12.968C14.8631 12.968 12.6837 15.1474 12.6837 17.8359C12.6837 20.5244 14.8631 22.7038 17.5516 22.7038ZM25.1991 11.838C26.1538 11.838 26.9278 11.064 26.9278 10.1093C26.9278 9.15459 26.1538 8.38063 25.1991 8.38063C24.2444 8.38063 23.4704 9.15459 23.4704 10.1093C23.4704 11.064 24.2444 11.838 25.1991 11.838Z" fill="white"/>
</svg>
