<svg width="140" height="61" viewBox="0 0 140 61" fill="none" xmlns="http://www.w3.org/2000/svg">
<path d="M19.0961 53.8264C15.2041 53.6704 12.0201 52.6064 9.52809 50.6304C9.05209 50.2544 7.92009 49.1184 7.54009 48.6424C6.53209 47.3744 5.84409 46.1384 5.38409 44.7664C3.97609 40.5424 4.70409 35.0064 7.46009 28.9264C9.82009 23.7224 13.4641 18.5624 19.8241 11.4144C20.7601 10.3624 23.5481 7.28638 23.5681 7.28638C23.5761 7.28638 23.4241 7.55038 23.2321 7.87038C21.5801 10.6384 20.1641 13.8984 19.3961 16.7224C18.1601 21.2504 18.3081 25.1384 19.8321 28.1544C20.8841 30.2304 22.6881 32.0304 24.7161 33.0264C28.2681 34.7664 33.4681 34.9104 39.8161 33.4464C40.2521 33.3464 61.9161 27.5944 87.9601 20.6664C114 13.7384 135.312 8.07438 135.316 8.07838C135.324 8.08638 74.8121 33.9784 43.4001 47.4104C38.4241 49.5384 37.0961 50.0744 34.7561 50.8944C28.7801 52.9944 23.4241 53.9984 19.0961 53.8264Z" fill="white"/>
</svg>
