<svg width="35" height="35" viewBox="0 0 35 35" fill="none" xmlns="http://www.w3.org/2000/svg">
<path d="M18.3087 28.0426L12.08 27.9262C10.0633 27.8857 8.04152 27.9666 6.06435 27.5464C3.05662 26.9185 2.84354 23.8397 2.62058 21.2572C2.31335 17.6265 2.43229 13.9299 3.01206 10.3295C3.33935 8.30932 4.6274 7.10386 6.61933 6.97268C13.3435 6.49662 20.1125 6.55304 26.8218 6.77514C27.5303 6.7955 28.2438 6.90678 28.9425 7.03345C32.3914 7.65126 32.4755 11.1402 32.6991 14.0772C32.9221 17.0446 32.8279 20.0272 32.4018 22.9743C32.0599 25.4144 31.4057 27.4607 28.6452 27.6583C25.1863 27.9166 21.8069 28.1246 18.3383 28.0583C18.3385 28.0426 18.3185 28.0426 18.3087 28.0426ZM14.6468 21.8649C17.2533 20.3355 19.8101 18.8316 22.4017 17.3125C19.7903 15.7832 17.2384 14.2793 14.6468 12.7602V21.8649Z" fill="white"/>
</svg>
